<svg xmlns="http://www.w3.org/2000/svg" xmlns:xlink="http://www.w3.org/1999/xlink" width="381.549" height="86.128" viewBox="0 0 381.549 86.128">
  <defs>
    <linearGradient id="linear-gradient" x1="0.985" y1="0.097" x2="-0.048" y2="1" gradientUnits="objectBoundingBox">
      <stop offset="0" stop-color="#1baca7"/>
      <stop offset="1" stop-color="#31dfd9"/>
    </linearGradient>
    <linearGradient id="linear-gradient-2" x1="0.985" y1="0.097" x2="-0.048" y2="1" gradientUnits="objectBoundingBox">
      <stop offset="0" stop-color="#fe2c2c"/>
      <stop offset="1" stop-color="#ff7a13"/>
    </linearGradient>
    <clipPath id="clip-path">
      <rect id="Rectangle_235" data-name="Rectangle 235" width="381.098" height="86.128" rx="10" transform="translate(16 318)" fill="url(#linear-gradient)"/>
    </clipPath>
  </defs>
  <g id="Group_10585" data-name="Group 10585" transform="translate(-16 -112)">
    <rect id="Rectangle_235-2" data-name="Rectangle 235" width="381.098" height="86.128" rx="10" transform="translate(16 112)" fill="url(#linear-gradient-2)"/>
    <g id="Mask_Group_34" data-name="Mask Group 34" transform="translate(0.451 -206)" clip-path="url(#clip-path)">
      <g id="crown" transform="translate(3.316 346.165)" opacity="0.16">
        <path id="Path_2021" data-name="Path 2021" d="M96.984,96.873H43.348A2.388,2.388,0,0,1,41.3,95.552c-7.077-12.667-7.62-37.034-7.661-40.651,0-.142,0-.285,0-.428a2.793,2.793,0,0,1,2.472-3.023h.005a2.789,2.789,0,0,1,2.477,3.012c0,.02,0,.2.006.515.218,8.6,6.02,15.518,13.12,15.518,7.238,0,13.126-7.187,13.126-16.022a2.792,2.792,0,0,1,2.477-3.023h5.69a2.791,2.791,0,0,1,2.477,3.023c0,8.835,5.889,16.022,13.127,16.022,7.106,0,12.912-6.928,13.12-15.542,0-.3.006-.472.006-.491a2.789,2.789,0,0,1,2.477-3.013h0a2.793,2.793,0,0,1,2.472,3.023q0,.215,0,.428c-.042,3.616-.585,27.984-7.661,40.651A2.389,2.389,0,0,1,96.984,96.873Zm0,0" transform="translate(-28.111 -42.998)" fill="#fff"/>
        <path id="Path_2023" data-name="Path 2023" d="M215.284,0a8,8,0,1,0,8,8A8.012,8.012,0,0,0,215.284,0Zm0,0" transform="translate(-173.23 0)" fill="#fff"/>
        <path id="Path_2025" data-name="Path 2025" d="M8,37.6a8,8,0,1,0,8,8A8.013,8.013,0,0,0,8,37.6Zm0,0" transform="translate(0 -31.421)" fill="#fff"/>
        <path id="Path_2026" data-name="Path 2026" d="M422.569,37.6a8,8,0,1,0,8,8A8.012,8.012,0,0,0,422.569,37.6Zm0,0" transform="translate(-346.462 -31.421)" fill="#fff"/>
        <path id="Path_2027" data-name="Path 2027" d="M133.785,277.262H80.149a2.477,2.477,0,0,1-2.477-2.477V267.4h58.59v7.387A2.477,2.477,0,0,1,133.785,277.262Zm0,0" transform="translate(-64.912 -215.261)" fill="#fff"/>
      </g>
    </g>
  </g>
</svg>
